<svg xmlns="http://www.w3.org/2000/svg" width="1440" height="636" fill="none" viewBox="0 0 1440 636">
  <g filter="url(#a)">
    <path fill="#6052FF" fill-opacity=".08" d="m1029.72 1094.73 465.61 220.36-460.32-231.28 473.06 203.98-468.1-215.07L1519.81 1260l-475.2-198.53 486.12 170.57-481.99-181.82 491.75 153.36-487.94-164.94 496.7 136.16-493.4-147.9 501.18 118.78-498.36-130.53 504.97 101.25-502.49-112.99 508.28 83.54-506.13-95.456 510.93 65.676-509.28-77.753 512.92 47.813-511.6-59.89 514.25 29.944-513.42-42.02 514.9 11.911-514.57-23.988 515.07-6.121-515.07-6.122L1582 906.956l-514.9 11.912 513.42-42.021-514.25 29.944 511.6-59.888-512.92 47.811 509.28-77.755-510.93 65.678 506.13-95.456-508.28 83.545 502.49-112.993-504.97 101.247 498.36-130.529-501.18 118.783 493.4-147.9-496.7 136.154 487.94-164.939-491.75 153.358 481.99-181.813-486.12 170.564 475.2-198.523-479.84 187.273 468.1-215.067-473.06 203.983 460.32-231.279-465.61 220.36 451.88-247.161-457.67 236.573 442.95-262.877-449.07 252.289 433.52-278.097-439.97 267.84 423.6-293.152-430.38 283.061 413.18-307.711-420.295 297.95 402.095-321.938-409.538 312.343L1380.71 382.69 982.248 709.095 1361.02 359.86 974.144 699.996l366.206-362.139-374.642 353.536 353.472-374.712-362.073 366.275 340.073-386.954L948.01 674.85l326.34-398.535-335.768 390.759 312.278-409.619L928.988 659.63l297.892-420.373-307.651 413.259 283.011-430.464-293.1 423.681 267.79-440.059-278.045 433.607 252.245-449.158L888.299 633.16l236.531-457.761L877.713 627.37l220.317-465.702-231.234 460.408 203.944-473.147-215.026 468.184 187.406-479.93L844.632 612.48l170.528-486.216-181.775 482.08 153.329-491.84-164.908 488.035 136.128-496.803-147.871 493.495L928.823 99.96 798.319 598.418 899.546 93.343 786.575 595.937l83.529-508.385-95.438 506.234 65.666-511.031-77.74 509.211L810.393 78.95l-59.876 511.693 29.938-514.34-42.012 513.513 11.909-515.002-23.984 514.671-6.12-515.168-6.12 515.168-23.983-514.671 11.909 515.002-42.013-513.514 29.938 514.341L630.103 78.95l47.802 513.016-77.74-509.377 65.665 511.032-95.438-506.234 83.529 508.384L540.95 93.177l101.227 505.076L511.673 99.795l118.761 501.27L482.562 107.57 618.69 604.374 453.782 116.338l153.33 491.841-181.779-482.08 170.531 486.216-198.485-475.297 187.238 479.929-215.026-468.183L573.535 621.91 342.3 161.502l220.318 465.702-247.114-451.971 236.528 457.762-262.827-443.038 252.241 449.159-278.044-433.608 267.789 440.06-293.096-423.682L521.102 652.35 213.45 239.092l297.893 420.372-321.877-402.175 312.283 409.62-335.77-390.76 326.342 398.535-349.168-378.848 340.071 386.955-362.07-366.441 353.469 374.712-374.64-353.536 366.204 362.139-386.88-340.136 378.776 349.235-398.46-326.57L450.31 718.029 40.768 405.685l402.097 321.939-420.292-297.95 413.18 307.711L5.371 454.324l423.6 293.152-439.975-267.841 433.525 278.098-449.073-252.29 442.953 262.878-457.674-236.573 451.885 247.161-465.613-220.361 460.32 231.28-473.056-203.983 468.093 215.067-479.837-187.273 475.206 198.523-486.123-170.565L391.59 823.411l-491.747-153.359 487.943 164.94-496.709-136.154 493.401 147.9-501.175-118.783 498.363 130.529-505.145-101.247L379.019 870.23l-508.287-83.546 506.137 95.457-510.933-65.678 509.114 77.755-512.919-47.811 511.595 59.888-514.241-29.944 513.414 42.02-514.903-11.911 514.573 23.988-515.069 6.121 515.069 6.122-514.573 23.988 514.903-11.912-513.414 42.021 514.241-29.944-511.595 59.886 512.919-47.809-509.114 77.759 510.933-65.682-506.137 95.452 508.287-83.54-502.498 112.99L381.5 1014.66l-498.362 130.52 501.174-118.78-493.4 147.9 496.708-136.15-487.942 164.94 491.747-153.36-481.988 181.81 486.123-170.56-475.206 198.52 479.837-187.27-468.094 215.06 473.056-203.98-460.32 231.28 465.613-220.36-451.884 247.16 457.673-236.57-442.952 262.88 449.072-252.29-433.524 278.09 439.975-267.84-423.6 293.15 430.382-283.06-413.18 307.72L442.7 1145.51 40.602 1467.45l409.541-312.34-390.684 335.84 398.458-326.41-378.775 349.24 386.88-340.14-366.37 362.14 374.64-353.54-353.469 374.71 362.07-366.27-340.071 386.95 349.168-378.84-326.342 398.53 335.77-390.76-312.283 409.62 321.877-402.17-297.893 420.37 307.652-413.26-283.007 430.46L530.86 1227.9l-267.789 440.06 278.044-433.61-252.241 449.16 262.827-443.04-236.528 457.77 247.114-451.97-220.318 465.7 231.235-460.41-203.943 473.15 215.025-468.19-187.238 479.93 198.485-475.3-170.531 486.22 181.779-482.08-153.33 491.84 164.908-488.03-136.127 496.8 147.871-493.5-118.76 501.28 130.504-498.46-101.228 505.07L653.59 1277.7l-83.529 508.38 95.438-506.23-65.665 511.03 77.74-509.21-47.802 513.02 59.876-511.7-29.938 514.34 42.013-513.51-11.909 515 23.983-514.67 6.12 515.17 6.12-515.17 23.984 514.67-11.909-515 42.012 513.51-29.938-514.34 59.877 511.7-47.802-513.02 77.74 509.38-65.666-511.04 95.439 506.24-83.53-508.39 112.971 502.6-101.227-505.08 130.504 498.46-118.76-501.27 147.871 493.5-136.128-496.81 164.908 488.04-153.329-491.84 181.776 482.08-170.529-486.22 198.489 475.3-187.241-479.93 215.021 468.18-203.939-473.15 231.239 460.41-220.323-465.7 247.113 451.97-236.527-457.76 262.827 443.04-252.241-449.16 278.041 433.61-267.786-440.06 293.096 423.68-283.006-430.47 307.656 413.26-297.897-420.37 321.877 402.18-312.284-409.62 335.774 390.76-326.346-398.54 349.166 378.85-340.068-386.96 362.068 366.28-353.468-374.71 374.638 353.53-366.202-362.14 386.882 340.14-378.777-349.23 398.457 326.57-390.683-335.84 409.543 312.34-402.1-321.93 420.29 297.95-413.18-307.71 430.38 283.06-423.6-293.16 439.98 267.84-433.53-278.09 449.08 252.29-442.96-262.88 457.68 236.57-451.89-247.16.17.17Zm-31.924-152.867-.331 9.761-.661 9.595-.992 9.596-1.324 9.595-1.654 9.595-1.985 9.43-2.315 9.425-2.647 9.27-2.977 9.26-3.308 9.1-3.639 8.94-3.97 8.93-4.3 8.77-4.466 8.6-4.797 8.44-5.127 8.27-5.459 8.11-5.789 7.77-5.954 7.61-6.286 7.45-6.45 7.28-6.782 6.94-6.947 6.79-7.112 6.45-7.444 6.28-7.608 5.96-7.774 5.63-8.105 5.45-8.27 5.13-8.436 4.8-8.601 4.47-8.766 4.3-8.932 3.97-8.932 3.64-9.097 3.31-9.263 2.98-9.262 2.64-9.428 2.32-9.429 1.98-9.593 1.66-9.593 1.32-9.594.99-9.759.67-9.758.33h-9.759l-9.759-.33-9.759-.67-9.594-.99-9.593-1.32-9.593-1.66-9.428-1.98-9.428-2.32-9.263-2.64-9.263-2.98-9.097-3.31-8.932-3.64-8.932-3.97-8.766-4.3-8.601-4.63-8.436-4.8-8.27-5.13-8.105-5.46-7.774-5.62-7.608-5.96-7.443-6.29-7.278-6.45-6.947-6.78-6.782-6.95-6.451-7.28-6.285-7.44-5.954-7.61-5.624-7.78-5.459-8.11-5.127-8.27-4.797-8.43-4.466-8.61-4.3-8.77-3.97-8.93-3.639-8.93-3.308-9.1-2.977-9.27-2.647-9.26-2.315-9.43-1.985-9.43-1.654-9.595-1.323-9.596-.993-9.595-.661-9.595-.331-9.761v-9.761l.331-9.761.661-9.595.993-9.595 1.323-9.595 1.654-9.596 1.985-9.43 2.315-9.429 2.647-9.265 2.977-9.264 3.308-9.099 3.639-8.934 3.97-8.933 4.3-8.768 4.632-8.603 4.796-8.437 5.128-8.272 5.458-8.106 5.789-7.941 5.955-7.61 6.285-7.445 6.451-7.279 6.782-6.948 6.947-6.783 7.277-6.452 7.444-6.287 7.608-5.956 7.774-5.624 8.105-5.46 8.27-5.128 8.436-4.798 8.601-4.467 8.766-4.301 8.767-3.971 8.931-3.639 9.098-3.309 9.262-2.978 9.263-2.647 9.428-2.316 9.428-1.985 9.593-1.654 9.594-1.324 9.593-.992 9.594-.662 9.759-.331h9.759l9.758.331 9.594.662 9.593.992 9.594 1.324 9.593 1.654 9.428 1.985 9.428 2.316 9.263 2.647 9.262 2.978 9.098 3.309 8.932 3.639 8.931 3.971 8.767 4.301 8.601 4.467 8.435 4.798 8.271 5.128 8.104 5.46 7.774 5.624 7.609 5.956 7.443 6.287 7.112 6.452 6.948 6.783 6.781 6.948 6.451 7.279 6.285 7.445 5.955 7.61 5.623 7.775 5.459 8.106 5.127 8.272 4.797 8.437 4.631 8.603 4.301 8.768 3.97 8.934 3.639 8.933 3.308 9.099 2.977 9.265 2.646 9.264 2.316 9.43 1.985 9.43 1.654 9.595 1.323 9.595.993 9.596.661 9.595.331 9.761v9.76l.165.331Z"/>
  </g>
  <defs>
    <filter id="a" width="1871.8" height="1871.8" x="-215.9" y=".917" color-interpolation-filters="sRGB" filterUnits="userSpaceOnUse">
      <feFlood flood-opacity="0" result="BackgroundImageFix"/>
      <feBlend in="SourceGraphic" in2="BackgroundImageFix" result="shape"/>
      <feTurbulence baseFrequency="0.011185682378709316 0.011185682378709316" numOctaves="3" seed="2044" type="fractalNoise"/>
      <feDisplacementMap width="100%" height="100%" in="shape" result="displacedImage" scale="146.8" xChannelSelector="R" yChannelSelector="G"/>
      <feMerge result="effect1_texture_1576_37900">
        <feMergeNode in="displacedImage"/>
      </feMerge>
    </filter>
  </defs>
</svg>
