<svg xmlns="http://www.w3.org/2000/svg" width="102" height="34" fill="none" viewBox="0 0 102 34">
  <g clip-path="url(#a)">
    <path fill="#F6F8FF" d="M29.46 2.282H2.963c-.81 0-1.467.657-1.467 1.467v26.497c0 .81.657 1.467 1.467 1.467H29.46c.81 0 1.467-.657 1.467-1.467V3.75c0-.81-.657-1.467-1.467-1.467Z"/>
    <path fill="#000" stroke="#000" stroke-width=".443" d="M19.145 8.202a3.134 3.134 0 0 0-.48.3c-.655.5-1.063 1.235-1.265 2.161-.295 1.338-.529 2.082-.77 2.564a2.567 2.567 0 0 1-.587.784l-.246.218c-1.033.88-1.994 1.64-2.613 2.216-.308.287-.556.55-.687.778a.707.707 0 0 0-.11.379.43.43 0 0 0 .124.286l.08.069.009.005c.183.116.405.086.595.022.2-.066.424-.19.662-.348.479-.32 1.055-.81 1.66-1.376.909-.851 1.9-1.89 2.753-2.819l.797-.88h.001c.408-.457.891-.809 1.357-.955.398-.124.775-.098 1.1.134l.137.114h.001c.266.248.314.625.122 1.109s-.61 1.024-1.172 1.497c-.572.481-.976.76-1.357 1.008-.382.248-.752.474-1.236.84-1.094.82-1.415 1.8-1.415 2.777 0 .482.078.961.172 1.415.05.235.1.454.15.665l.134.62c.335 1.78.73 2.891 1.391 3.559.187.188.392.337.616.457h-5.856c.233-.116.45-.26.651-.439.752-.671 1.226-1.792 1.447-3.59.06-.474.08-.915.101-1.322.021-.41.044-.785.108-1.145.124-.707.406-1.364 1.167-2.062h-.001c.299-.274.66-.579 1.032-.894.37-.315.75-.638 1.082-.94.33-.302.622-.592.811-.84.094-.124.174-.25.215-.373a.462.462 0 0 0-.014-.369l-.035-.054c-.14-.183-.353-.218-.55-.187-.19.03-.404.124-.624.252-.446.258-.994.696-1.58 1.22-.883.787-1.88 1.792-2.79 2.734l-.874.91v.001c-.473.5-.989.974-1.463 1.237-.237.132-.447.2-.625.205a.58.58 0 0 1-.35-.095l-.105-.087c-.31-.31-.39-.76-.189-1.307.178-.484.574-1.03 1.2-1.562l.282-.228h.001c1.076-.824 1.627-1.21 2.25-1.702l.67-.546c.615-.524.698-1.317.615-2.043-.063-.547-.226-1.097-.367-1.535l-.13-.396v-.001l-.144-.394c-.356-.878-.856-1.482-1.49-1.874a3.427 3.427 0 0 0-.319-.173h5.951Z"/>
    <path stroke="#F6F8FF" stroke-miterlimit="10" stroke-width=".435" d="M1.666 1.005H30.76c.8 0 1.448.648 1.448 1.448v29.094c0 .8-.648 1.448-1.448 1.448H1.666c-.8 0-1.448-.648-1.448-1.448V2.453c0-.8.648-1.448 1.448-1.448Z"/>
  </g>
  <path fill="#F6F8FF" d="M41.275 6.379h6.6V27.62h-6.6V6.38Zm14.821 9.176h7.42c.831 0 1.473-.189 1.926-.566.473-.378.709-.925.709-1.643 0-.717-.236-1.265-.709-1.643-.453-.377-1.095-.566-1.925-.566h-8.355l2.974-3.059V27.62h-6.6V6.38h12.972c1.643 0 3.087.293 4.333.878s2.219 1.397 2.917 2.436c.699 1.038 1.048 2.256 1.048 3.653 0 1.36-.35 2.568-1.048 3.625-.698 1.039-1.67 1.85-2.917 2.436-1.246.566-2.69.85-4.333.85h-8.412v-4.702Zm2.833 2.124h7.335l7.307 9.941h-7.562l-7.08-9.94Zm21.286 6.118v-5.268h14.557v5.268H80.215ZM91.968 6.379l9.516 21.241h-7.052L86.73 9.24h1.784l-7.732 18.38h-7.024l9.487-21.24h8.723Z"/>
  <defs>
    <clipPath id="a">
      <path fill="#fff" d="M0 .787h32.425v32.425H0z"/>
    </clipPath>
  </defs>
</svg>
