<svg width="71" height="38" viewBox="0 0 71 38" fill="none" xmlns="http://www.w3.org/2000/svg">
<path d="M8.44805 17.9765C8.17559 18.2509 8.03892 18.5886 8.03892 18.9996C8.03892 19.4107 8.17562 19.7477 8.44799 20.0211C8.7215 20.2955 9.05768 20.4329 9.46669 20.4329H58.6539H59.0151L58.7602 20.6888L51.0291 28.4472C50.7718 28.7053 50.6462 29.0336 50.6578 29.4454C50.6705 29.8597 50.8089 30.1915 51.0685 30.4521C51.3269 30.7114 51.6555 30.8434 52.0667 30.8434C52.4778 30.8434 52.8065 30.7114 53.0649 30.4521L63.4782 20.0021C63.6226 19.8572 63.7215 19.704 63.7793 19.5427C63.8383 19.3754 63.8684 19.1948 63.8684 18.9996C63.8684 18.8044 63.8383 18.6156 63.7782 18.4326C63.7206 18.2613 63.6244 18.1202 63.4882 18.0063L63.4778 17.9976L63.4782 17.9972L53.0649 7.54715C52.8065 7.28783 52.4778 7.15586 52.0667 7.15586C51.6555 7.15586 51.3269 7.28783 51.0685 7.54715C50.8089 7.80769 50.6705 8.13952 50.6578 8.55383L8.44805 17.9765ZM8.44805 17.9765C8.72148 17.7032 9.05764 17.5663 9.46669 17.5663H58.6539H59.0151L58.7602 17.3104L51.0291 9.55206C50.7719 9.29395 50.6463 8.96583 50.6578 8.55418L8.44805 17.9765Z" fill="white" stroke="white" stroke-width="0.3"/>
</svg>
