<svg xmlns="http://www.w3.org/2000/svg" width="299" height="162" fill="none" viewBox="0 0 299 162">
  <g filter="url(#a)">
    <path fill="#6052FF" fill-opacity=".2" d="m685.219 980.726 465.611 220.364-460.318-231.283 473.058 203.983-468.096-215.067L1175.31 1146 700.106 947.473l486.124 170.567-481.989-181.816 491.749 153.356-487.945-164.937L1204.75 1060.8 711.353 912.897l501.177 118.783-498.365-130.529L1219.14 1002.4 716.646 889.406l508.284 83.545-506.134-95.457 510.934 65.678-509.28-77.755 512.92 47.811-511.596-59.888 514.246 29.944-513.419-42.02 514.899 11.911-514.568-23.988L1238 823.066l-515.068-6.122 514.568-23.988-514.899 11.912 513.419-42.021-514.246 29.944 511.596-59.888-512.92 47.811 509.28-77.755-510.934 65.678 506.134-95.456-508.284 83.545 502.494-112.993L714.165 744.98l498.365-130.529-501.177 118.783 493.397-147.9-496.705 136.154 487.945-164.939-491.749 153.358 481.989-181.813-486.124 170.564 475.204-198.523-479.836 187.273 468.096-215.067-473.058 203.983 460.318-231.279-465.611 220.36L1137.1 418.244 679.43 654.817l442.95-262.877-449.07 252.289 433.52-278.097-439.971 267.84L1090.46 340.82 660.078 623.881 1073.26 316.17 652.965 614.12l402.095-321.938-409.538 312.343L1036.21 268.69 637.748 595.095 1016.52 245.86 629.644 585.996l366.204-362.139-374.64 353.536 353.469-374.712-362.07 366.275 340.071-386.954L603.51 560.85l326.342-398.535-335.77 390.759 312.283-409.619L584.488 545.63l297.893-420.373-307.652 413.259 283.007-430.464L564.64 531.733l267.789-440.06-278.044 433.608L806.626 76.123 543.799 519.16 780.327 61.399 533.213 513.37 753.531 47.668 522.296 508.076 726.24 34.929 511.214 503.113l187.403-479.93L500.132 498.48 670.664 12.264l-181.779 482.08L642.214 2.504 477.306 490.539 613.434-6.264 465.563 487.23l118.76-501.27-130.504 498.458L555.046-20.657 442.075 481.937l83.529-508.385-95.438 506.234 65.666-511.031-77.74 509.211L465.893-35.05l-59.876 511.693 29.938-514.34-42.012 513.513 11.909-515.002-23.984 514.671-6.12-515.168-6.12 515.168-23.983-514.671 11.909 515.002-42.013-513.514 29.938 514.341L285.603-35.05l47.802 513.016-77.74-509.377 65.665 511.032-95.438-506.234 83.529 508.384L196.45-20.823l101.227 505.076L167.173-14.205l118.761 501.27L138.062-6.43 274.19 490.374 109.282 2.338l153.33 491.841-181.78-482.08 170.532 486.216L52.879 23.018l187.238 479.929L25.091 34.764 229.035 507.91-2.2 47.502l220.318 465.702-247.114-451.97 236.528 457.761L-55.295 75.957l252.241 449.159L-81.098 91.508l267.789 440.06-293.096-423.682L176.602 538.35-131.05 125.092l297.893 420.372-321.877-402.175 312.283 409.62-335.77-390.76 326.342 398.535-349.168-378.848 340.071 386.955-362.07-366.441 353.469 374.712-374.64-353.536 366.204 362.139-386.88-340.136 378.776 349.235-398.459-326.57 390.685 335.835-409.541-312.344L98.365 613.624l-420.292-297.95 413.18 307.711-430.382-283.061 423.6 293.152-439.975-267.841L78.021 643.733l-449.073-252.29L71.901 654.321l-457.674-236.573L66.112 664.909l-465.613-220.361 460.32 231.28-473.056-203.983L55.856 686.912-423.98 499.639 51.225 698.162l-486.123-170.565L47.09 709.411l-491.747-153.359 487.943 164.94-496.709-136.154 493.4 147.9-501.174-118.783L37.166 744.484-467.98 643.237 34.519 756.23l-508.287-83.546 506.137 95.457-510.933-65.678L30.55 780.218l-512.919-47.811 511.595 59.888-514.241-29.944 513.414 42.02-514.903-11.911 514.572 23.988L-487 822.569l515.068 6.122-514.572 23.988 514.903-11.912-513.414 42.021 514.241-29.944-511.595 59.888L30.55 864.921l-509.114 77.755 510.933-65.678-506.137 95.456 508.287-83.545-502.498 112.991 504.98-101.245-498.363 130.525L39.812 912.401l-493.4 147.899L43.12 924.147l-487.942 164.943L46.925 935.728l-481.988 181.812L51.06 946.977-424.146 1145.5 55.691 958.227l-468.094 215.063L60.653 969.311l-460.32 231.279L65.946 980.23l-451.884 247.16L71.735 990.818-371.217 1253.7l449.072-252.29-433.524 278.09 439.975-267.84-423.6 293.15 430.382-283.06-413.18 307.72L98.2 1031.51l-402.098 321.94 409.541-312.34-390.685 335.84 398.459-326.41-378.775 349.24 386.88-340.14-366.37 362.14 374.64-353.54-353.469 374.71 362.07-366.27-340.071 386.95 349.168-378.84-326.342 398.53 335.77-390.76-312.283 409.62 321.877-402.17-297.893 420.37 307.652-413.26-283.007 430.46L186.36 1113.9l-267.789 440.06 278.044-433.61-252.24 449.16L207.2 1126.47l-236.528 457.77 247.114-451.97-220.318 465.7 231.235-460.41L24.76 1610.71l215.026-468.19-187.238 479.93 198.485-475.3-170.531 486.22 181.779-482.08-153.33 491.84 164.908-488.03-136.127 496.8 147.871-493.5-118.76 501.28 130.504-498.46-101.228 505.07L309.09 1163.7l-83.529 508.38 95.438-506.23-65.665 511.03 77.74-509.21-47.802 513.02 59.876-511.7-29.938 514.34 42.013-513.51-11.909 515 23.983-514.67 6.12 515.17 6.12-515.17 23.984 514.67-11.909-515 42.012 513.51-29.938-514.34 59.877 511.7-47.802-513.02 77.74 509.38-65.666-511.04 95.439 506.24-83.53-508.39 112.971 502.6-101.227-505.08 130.504 498.46-118.76-501.27 147.871 493.5-136.128-496.81 164.908 488.04-153.329-491.84 181.779 482.08-170.532-486.22 198.485 475.3-187.237-479.93 215.025 468.18-203.943-473.15 231.235 460.41-220.319-465.7 247.114 451.97-236.528-457.76 262.828 443.04-252.242-449.16 278.045 433.61-267.79-440.06 293.096 423.68-283.006-430.47 307.652 413.26-297.893-420.37 321.876 402.18-312.283-409.62 335.771 390.76-326.343-398.54 349.168 378.85-340.07-386.96 362.069 366.28-353.469-374.71 374.641 353.53-366.205-362.14 386.882 340.14-378.777-349.23 398.457 326.57-390.683-335.84 409.543 312.34-402.1-321.93 420.29 297.95-413.177-307.71 430.377 283.06-423.596-293.16 439.976 267.84-433.525-278.09 449.075 252.29-442.955-262.882 457.675 236.572-451.886-247.159.165.165Zm-31.923-152.863-.331 9.761-.661 9.595-.992 9.596-1.324 9.595-1.654 9.595-1.985 9.43-2.315 9.43-2.647 9.264-2.977 9.265-3.308 9.099-3.639 8.933-3.97 8.934-4.3 8.768-4.466 8.603-4.797 8.437-5.127 8.272-5.459 8.106-5.789 7.776-5.954 7.609-6.286 7.449-6.45 7.28-6.782 6.94-6.947 6.79-7.112 6.45-7.444 6.28-7.608 5.96-7.774 5.63-8.105 5.45-8.27 5.13-8.436 4.8-8.601 4.47-8.766 4.3-8.932 3.97-8.932 3.64-9.097 3.31-9.263 2.98-9.262 2.64-9.428 2.32-9.429 1.98-9.593 1.66-9.593 1.32-9.594.99-9.759.67-9.758.33h-9.759l-9.759-.33-9.759-.67-9.594-.99-9.593-1.32-9.593-1.66-9.428-1.98-9.428-2.32-9.263-2.64-9.263-2.98-9.097-3.31-8.932-3.64-8.932-3.97-8.766-4.3-8.601-4.63-8.436-4.8-8.27-5.13-8.105-5.46-7.774-5.62-7.608-5.96-7.443-6.29-7.278-6.45-6.947-6.78-6.782-6.95-6.451-7.28-6.285-7.444-5.954-7.61-5.624-7.776-5.459-8.106-5.127-8.272-4.797-8.437-4.466-8.602-4.3-8.769-3.97-8.933-3.639-8.934-3.308-9.099-2.977-9.264-2.647-9.265-2.315-9.429-1.985-9.43-1.654-9.595-1.323-9.596-.993-9.595-.661-9.595-.331-9.761v-9.761l.33-9.761.662-9.595.993-9.595 1.323-9.595 1.654-9.596 1.985-9.43 2.315-9.429 2.647-9.265 2.977-9.264 3.308-9.099 3.639-8.934 3.97-8.933 4.3-8.768 4.632-8.603 4.796-8.437 5.128-8.272 5.458-8.106 5.789-7.941 5.955-7.61 6.285-7.445 6.451-7.279 6.782-6.948 6.947-6.783 7.277-6.452 7.444-6.287 7.608-5.956 7.774-5.624 8.105-5.46 8.27-5.128 8.436-4.798 8.601-4.467 8.766-4.301 8.767-3.971 8.931-3.639 9.098-3.309 9.262-2.978 9.263-2.647 9.428-2.316 9.428-1.985 9.593-1.654 9.594-1.324 9.593-.992 9.594-.662 9.759-.331h9.759l9.758.331 9.594.662 9.593.992 9.594 1.324 9.593 1.654 9.428 1.985 9.428 2.316 9.263 2.647 9.262 2.978 9.098 3.309 8.932 3.639 8.931 3.971 8.767 4.301 8.601 4.467 8.435 4.798 8.271 5.128 8.104 5.46 7.774 5.624 7.609 5.956 7.443 6.287 7.112 6.452 6.948 6.783 6.781 6.948 6.451 7.279 6.285 7.445 5.955 7.61 5.623 7.775 5.459 8.106 5.127 8.272 4.797 8.437 4.631 8.603 4.301 8.768 3.97 8.934 3.639 8.933 3.308 9.099 2.977 9.265 2.646 9.264 2.316 9.43 1.985 9.43 1.654 9.595 1.323 9.595.993 9.596.661 9.595.331 9.761v9.76l.165.331Z"/>
  </g>
  <defs>
    <filter id="a" width="1871.8" height="1871.8" x="-560.4" y="-113.083" color-interpolation-filters="sRGB" filterUnits="userSpaceOnUse">
      <feFlood flood-opacity="0" result="BackgroundImageFix"/>
      <feBlend in="SourceGraphic" in2="BackgroundImageFix" result="shape"/>
      <feTurbulence baseFrequency="0.011185682378709316 0.011185682378709316" numOctaves="3" seed="2044" type="fractalNoise"/>
      <feDisplacementMap width="100%" height="100%" in="shape" result="displacedImage" scale="146.8" xChannelSelector="R" yChannelSelector="G"/>
      <feMerge result="effect1_texture_1553_56626">
        <feMergeNode in="displacedImage"/>
      </feMerge>
    </filter>
  </defs>
</svg>
