<svg xmlns="http://www.w3.org/2000/svg" width="28" height="25" fill="none" viewBox="0 0 28 25">
  <path fill="#fff" stroke="#131313" stroke-width=".5" d="M19.999.25c3.969 0 7.084 3.115 7.084 7.083 0 2.438-1.094 4.67-3.068 7.084-1.483 1.813-3.448 3.711-5.788 5.862l-2.462 2.242-1.767 1.608-1.765-1.595c-3.438-3.124-6.271-5.697-8.249-8.116C2.01 12.003.916 9.771.916 7.333.916 3.365 4.031.25 7.999.25c2.244 0 4.402 1.046 5.81 2.7l.19.222.19-.223C15.598 1.297 17.756.25 20 .25Zm0 2.167c-2.089 0-4.13 1.3-4.915 3.146h-2.157c-.798-1.845-2.838-3.146-4.928-3.146-2.804 0-4.916 2.112-4.916 4.916 0 2.019 1.096 3.991 2.946 6.153 1.39 1.624 3.227 3.379 5.395 5.366l2.274 2.067.124.124.177.178.177-.178.125-.124c3.169-2.87 5.816-5.268 7.669-7.433 1.85-2.162 2.946-4.134 2.946-6.153 0-2.805-2.112-4.916-4.917-4.916Z"/>
</svg>
