<svg width="28" height="28" viewBox="0 0 28 28" fill="none" xmlns="http://www.w3.org/2000/svg">
<path d="M4 18.3168V17.9452C4.00628 17.9301 4.01126 17.9145 4.01486 17.8985C4.04949 17.5605 4.16766 17.2374 4.35808 16.9599C4.5485 16.6824 4.8048 16.4599 5.1025 16.3136C5.30749 16.2226 5.51778 16.1447 5.73215 16.0806V11.8684C5.57895 11.8374 5.42767 11.7971 5.2791 11.7476C5.00969 11.6468 4.76559 11.485 4.56469 11.2743C4.36378 11.0637 4.21117 10.8094 4.11801 10.53C4.07049 10.3725 4.0311 10.2124 4 10.0505V9.62533C4.0099 9.57942 4.0231 9.53434 4.0297 9.48843C4.07987 9.19285 4.19268 8.91233 4.3601 8.6668C4.52753 8.42127 4.74543 8.2168 4.99831 8.06797C5.2512 7.91913 5.53282 7.8296 5.82313 7.80573C6.11343 7.78187 6.40527 7.82424 6.67785 7.92987C6.93728 8.03241 7.1737 8.18835 7.37269 8.38817L11.6688 5.83734C11.6589 5.80503 11.6515 5.77785 11.6424 5.75234C11.5498 5.49768 11.5077 5.22646 11.5187 4.95474C11.5297 4.68302 11.5936 4.4163 11.7065 4.17048C11.8194 3.92465 11.979 3.70469 12.176 3.52364C12.3729 3.34258 12.6032 3.20417 12.853 3.11651C13.004 3.06294 13.1641 3.03826 13.3201 3H13.665C13.6831 3.00613 13.7016 3.01093 13.7203 3.01443C14.0321 3.04476 14.3312 3.15657 14.5893 3.33925C14.9097 3.55001 15.1627 3.85341 15.3167 4.21153C15.4706 4.56964 15.5187 4.96656 15.455 5.35268C15.4258 5.51762 15.3881 5.68084 15.3419 5.8416L19.6257 8.39242L19.6768 8.34655C19.9215 8.11461 20.2188 7.94982 20.5415 7.86744C20.8642 7.78506 21.2018 7.7877 21.5233 7.87512C21.8447 7.96253 22.1396 8.13194 22.3808 8.36767C22.622 8.6034 22.8018 8.8979 22.9034 9.22401C22.9472 9.36771 22.9695 9.51819 23.0017 9.66529V10.0198C22.9959 10.0471 22.9884 10.0743 22.9851 10.1049C22.9337 10.5443 22.7426 10.9538 22.4414 11.2695C22.1403 11.5851 21.7462 11.7892 21.3207 11.8497C21.2811 11.8548 21.2538 11.8692 21.2579 11.9185C21.2637 11.9908 21.2712 12.0631 21.2712 12.1354C21.2712 13.434 21.2712 14.7326 21.2712 16.0313C21.2712 16.0611 21.2711 16.0908 21.2753 16.1164C21.6503 16.1664 22.0034 16.3263 22.2928 16.5771C22.5821 16.828 22.7955 17.1591 22.9076 17.5312C22.9505 17.6723 22.9703 17.8203 23.0017 17.9657V18.3211C22.9909 18.3789 22.9794 18.4367 22.9703 18.4911C22.9188 18.7922 22.8024 19.0775 22.6295 19.3259C22.4567 19.5743 22.2319 19.7796 21.9717 19.9265C21.7116 20.0734 21.4227 20.1583 21.1265 20.1747C20.8303 20.1912 20.5342 20.1389 20.2602 20.0216C20.0259 19.9189 19.8118 19.7732 19.6281 19.5914C19.605 19.6033 19.5852 19.6127 19.5671 19.6246C18.1741 20.4527 16.7811 21.2806 15.3881 22.1082C15.3328 22.1414 15.3361 22.1703 15.3551 22.2221C15.5347 22.7138 15.5226 23.258 15.3214 23.7406C15.1201 24.2233 14.7454 24.6069 14.2757 24.8112C14.1027 24.8774 13.9264 24.9342 13.7476 24.9813C13.5946 25.0113 13.4376 25.0113 13.2846 24.9813C12.9772 24.9447 12.6824 24.8347 12.4237 24.6599C12.1649 24.4851 11.9494 24.2504 11.7943 23.9745C11.6352 23.7018 11.541 23.3942 11.5193 23.0768C11.4977 22.7594 11.5492 22.4412 11.6696 22.1482L7.37435 19.5974L7.32566 19.6432C6.99206 19.9625 6.56123 20.1524 6.1068 20.1806C5.67625 20.2095 5.2484 20.0921 4.88885 19.8464C4.52931 19.6006 4.25793 19.2402 4.11635 18.8202C4.06933 18.6546 4.0305 18.4865 4 18.3168ZM7.68793 8.80568L7.71598 8.86095C7.92333 9.24553 8.00329 9.68931 7.94372 10.1249C7.88415 10.5606 7.6883 10.9643 7.3859 11.2749C7.24719 11.4084 7.09536 11.5266 6.93285 11.6277C6.834 11.6859 6.72871 11.7316 6.61926 11.7638C6.52921 11.7973 6.436 11.8209 6.34116 11.8344C6.24543 11.8463 6.22976 11.8522 6.22976 11.9525C6.22976 13.305 6.22976 14.6576 6.22976 16.0101V16.1112C6.55547 16.1533 6.86564 16.2793 7.1316 16.4776C7.39757 16.6758 7.61077 16.9399 7.75148 17.2455C7.89925 17.5478 7.97059 17.8837 7.95891 18.222C7.94722 18.5602 7.85289 18.89 7.68463 19.1807L11.9172 21.6984C12.1016 21.4467 12.3405 21.2429 12.6149 21.1031C12.8892 20.9633 13.1915 20.8914 13.4975 20.8932C13.8026 20.8927 14.1036 20.9651 14.3769 21.1047C14.6502 21.2442 14.8885 21.4471 15.0729 21.6975L19.3129 19.1739C19.1816 18.9575 19.0971 18.7145 19.0653 18.4614C18.9924 18.085 19.0369 17.6946 19.1924 17.3458C19.3191 17.0276 19.5231 16.7482 19.7848 16.5347C20.0465 16.3212 20.3572 16.1806 20.6869 16.1265C20.757 16.1129 20.7694 16.0815 20.7694 16.0211C20.7694 15.9608 20.7612 15.9199 20.7612 15.8697C20.7612 14.6187 20.7612 13.3677 20.7612 12.1166C20.7612 12.0495 20.7661 11.9823 20.7702 11.9151C20.7702 11.87 20.7554 11.8505 20.7125 11.8412C20.6005 11.8217 20.4901 11.7932 20.3824 11.7561C20.2179 11.697 20.0595 11.6212 19.9095 11.5299C19.5615 11.2904 19.2968 10.9428 19.1539 10.5375C19.0109 10.1323 18.9973 9.69057 19.1148 9.27674C19.1627 9.11434 19.2345 8.95959 19.298 8.79633L15.0754 6.28459C14.8909 6.53535 14.6525 6.73854 14.3788 6.87813C14.1051 7.01772 13.8037 7.08991 13.4983 7.08899C13.1926 7.09037 12.8906 7.01841 12.6165 6.87881C12.3424 6.7392 12.1035 6.53574 11.9189 6.28459L7.68793 8.80568ZM14.978 5.04322C14.9779 4.84152 14.9388 4.64184 14.8631 4.45586C14.7873 4.26987 14.6764 4.10128 14.5368 3.95993C14.3971 3.81858 14.2315 3.70731 14.0497 3.63257C13.8679 3.55783 13.6735 3.52112 13.4777 3.52462C13.2841 3.52684 13.0927 3.5684 12.9147 3.64689C12.7366 3.72538 12.5753 3.83925 12.4401 3.98204C12.3048 4.12483 12.1981 4.29371 12.1263 4.479C12.0544 4.6643 12.0187 4.86238 12.0212 5.0619C12.0235 5.26211 12.064 5.4599 12.1404 5.64398C12.2169 5.82805 12.3278 5.9948 12.4668 6.13471C12.6058 6.27462 12.7702 6.38499 12.9506 6.45943C13.131 6.53387 13.3238 6.57098 13.5182 6.56862C13.9077 6.56458 14.2798 6.40188 14.5534 6.11608C14.8269 5.83028 14.9795 5.44459 14.978 5.04322ZM5.97807 8.32273C5.58728 8.32362 5.21269 8.48368 4.93597 8.768C4.65926 9.05232 4.50287 9.4378 4.50091 9.84044C4.50091 10.2464 4.6574 10.6357 4.93597 10.9227C5.21454 11.2097 5.59236 11.3709 5.98632 11.3709C6.37727 11.3685 6.75152 11.2073 7.0279 10.9224C7.30427 10.6375 7.46048 10.2518 7.46265 9.84895C7.46297 9.64814 7.42477 9.44926 7.35024 9.26372C7.27571 9.07817 7.16632 8.90963 7.02835 8.76779C6.89039 8.62596 6.72658 8.51359 6.54633 8.43721C6.36609 8.36083 6.17296 8.32194 5.97807 8.32273ZM22.4941 18.1374C22.4944 17.9371 22.4562 17.7386 22.382 17.5535C22.3077 17.3683 22.1988 17.2001 22.0613 17.0583C21.9239 16.9166 21.7607 16.8041 21.5811 16.7274C21.4015 16.6507 21.209 16.6112 21.0145 16.6112C20.6221 16.6137 20.2466 16.776 19.97 17.0627C19.6934 17.3495 19.5382 17.7374 19.5382 18.1417C19.5401 18.5433 19.6961 18.9278 19.972 19.2115C20.2479 19.4951 20.6214 19.6549 21.0112 19.656C21.2055 19.6576 21.3982 19.6195 21.5782 19.5439C21.7582 19.4683 21.9218 19.3567 22.0597 19.2156C22.1976 19.0745 22.3069 18.9066 22.3815 18.7217C22.4561 18.5368 22.4944 18.3385 22.4941 18.1383V18.1374ZM21.0203 8.32184C20.8263 8.3205 20.634 8.35862 20.4543 8.43394C20.2746 8.50926 20.1111 8.62034 19.9732 8.76084C19.8352 8.90133 19.7255 9.06848 19.6503 9.25271C19.5751 9.43695 19.5358 9.63466 19.5349 9.83453C19.5349 10.239 19.6902 10.6269 19.967 10.9137C20.2438 11.2005 20.6195 11.3628 21.012 11.365C21.4017 11.3639 21.7752 11.2046 22.0516 10.9216C22.3279 10.6385 22.4849 10.2547 22.4884 9.85321C22.4901 9.6533 22.4535 9.45501 22.3806 9.26974C22.3077 9.08446 22.2 8.91584 22.0636 8.7736C21.9272 8.63137 21.7649 8.51833 21.586 8.44095C21.4071 8.36357 21.2151 8.32339 21.0211 8.32273L21.0203 8.32184ZM14.9763 22.9372C14.9772 22.5341 14.8227 22.1471 14.5468 21.8612C14.2709 21.5753 13.8962 21.414 13.505 21.4127C13.1139 21.4131 12.7389 21.573 12.4618 21.8574C12.1847 22.1417 12.0281 22.5275 12.0261 22.9304C12.0259 23.3336 12.1809 23.7204 12.457 24.006C12.7331 24.2916 13.1079 24.4528 13.4992 24.4541C13.6929 24.4547 13.8848 24.4159 14.0639 24.34C14.243 24.2641 14.4059 24.1526 14.5431 24.0118C14.6804 23.871 14.7894 23.7036 14.8639 23.5194C14.9383 23.3352 14.9768 23.1376 14.9772 22.9381L14.9763 22.9372ZM5.98137 19.656C6.37134 19.6558 6.74534 19.4965 7.02155 19.2128C7.29776 18.9292 7.45369 18.5444 7.45522 18.1426C7.45511 17.9428 7.41677 17.7451 7.34239 17.5607C7.26802 17.3763 7.15908 17.2088 7.02179 17.0678C6.8845 16.9268 6.72158 16.8151 6.54234 16.7391C6.3631 16.663 6.17106 16.6242 5.97724 16.6248C5.78167 16.6234 5.58782 16.6624 5.40716 16.7396C5.22651 16.8168 5.06273 16.9305 4.92552 17.0741C4.78831 17.2177 4.68048 17.3882 4.60839 17.5755C4.53631 17.7628 4.50143 17.9632 4.50586 18.1647C4.50747 18.3627 4.54703 18.5585 4.62224 18.7408C4.69746 18.9231 4.80685 19.0883 4.94416 19.2269C5.08147 19.3656 5.244 19.4749 5.42241 19.5487C5.60082 19.6225 5.7916 19.6592 5.98384 19.6568L5.98137 19.656Z" fill="white"/>
<path d="M13.5099 18.9441C12.5671 18.9442 11.645 18.6596 10.8576 18.1254C10.0702 17.5912 9.45201 16.8308 9.07961 15.9384C8.7072 15.0459 8.59688 14.0606 8.7623 13.1043C8.92771 12.1479 9.36159 11.2625 10.0103 10.5576C10.659 9.85269 11.494 9.35919 12.412 9.13813C13.3301 8.91708 14.2909 8.97826 15.1756 9.31396C16.0603 9.64966 16.8301 10.2452 17.3897 11.027C17.9494 11.8087 18.2743 12.7424 18.3243 13.7124C18.359 14.386 18.2603 15.0599 18.034 15.6929C17.8078 16.3259 17.4588 16.9048 17.0083 17.3943C16.5579 17.8838 16.0154 18.2737 15.4139 18.5401C14.8124 18.8066 14.1646 18.944 13.5099 18.9441ZM13.5157 9.31479C12.6242 9.31445 11.7525 9.5854 11.0099 10.0937C10.2674 10.6019 9.68702 11.3248 9.34173 12.1717C8.99645 13.0185 8.90161 13.9515 9.0691 14.8537C9.2366 15.7559 9.65898 16.5871 10.2832 17.2428C10.9075 17.8986 11.7058 18.3497 12.578 18.5397C13.4502 18.7297 14.3574 18.6501 15.1859 18.3108C16.0143 17.9714 16.727 17.3876 17.2345 16.6324C17.7421 15.8773 18.0219 14.9845 18.0388 14.0661C18.0501 13.4466 17.9414 12.831 17.7192 12.2553C17.497 11.6795 17.1657 11.1551 16.7446 10.7128C16.3235 10.2704 15.8211 9.91903 15.2667 9.679C14.7123 9.43896 14.1171 9.31513 13.5157 9.31479Z" fill="white"/>
<path d="M13.5231 9.834C14.3187 9.83636 15.0956 10.0818 15.7557 10.5393C16.4159 10.9967 16.9295 11.6456 17.2316 12.4038C17.5337 13.1621 17.6108 13.9956 17.453 14.7989C17.2953 15.6023 16.9098 16.3395 16.3454 16.9172C15.781 17.4948 15.063 17.887 14.2822 18.044C13.5014 18.2011 12.693 18.116 11.9591 17.7996C11.2253 17.4832 10.599 16.9496 10.1596 16.2664C9.72009 15.5831 9.48717 14.7809 9.49026 13.9612C9.49507 12.8633 9.92238 11.8122 10.6784 11.0384C11.4345 10.2647 12.4575 9.83151 13.5231 9.834ZM12.0031 13.8685L11.9866 13.8737C11.98 13.8618 11.9725 13.8508 11.9668 13.8389C11.8083 13.5118 11.6499 13.1847 11.4914 12.8576C11.4748 12.8128 11.4468 12.7733 11.4104 12.7434C11.374 12.7135 11.3304 12.6943 11.2843 12.6876C11.1085 12.6663 10.9971 12.7803 10.9963 12.9878C10.9963 13.6555 10.9963 14.323 10.9963 14.9901C10.9935 15.026 10.9979 15.0619 11.0093 15.0959C11.0206 15.1299 11.0387 15.1611 11.0624 15.1875C11.086 15.214 11.1147 15.235 11.1467 15.2494C11.1786 15.2638 11.2131 15.2713 11.248 15.2713C11.2829 15.2713 11.3174 15.2638 11.3493 15.2494C11.3813 15.235 11.41 15.214 11.4336 15.1875C11.4573 15.1611 11.4754 15.1299 11.4867 15.0959C11.4981 15.0619 11.5025 15.026 11.4997 14.9901C11.4997 14.7597 11.4997 14.5284 11.4997 14.2971C11.4997 14.2285 11.4997 14.16 11.4997 14.0914C11.5202 14.103 11.5364 14.1212 11.5459 14.1432C11.701 14.4623 11.8556 14.7812 12.0097 15.0997C12.0314 15.1597 12.0732 15.2098 12.1274 15.241C12.1817 15.2722 12.245 15.2824 12.3059 15.2699C12.3678 15.2556 12.4223 15.2181 12.4588 15.1646C12.4952 15.1112 12.5111 15.0456 12.5032 14.9808C12.5032 14.3414 12.5032 13.7023 12.5032 13.0634C12.5032 13.0158 12.5032 12.9673 12.5032 12.9197C12.4992 12.8514 12.4691 12.7876 12.4195 12.7423C12.3699 12.6969 12.3049 12.6738 12.2387 12.6778C12.1725 12.6819 12.1105 12.7129 12.0665 12.764C12.0225 12.8151 12 12.8821 12.0039 12.9503C12.0023 13.2555 12.0031 13.5624 12.0031 13.8685ZM13.5157 13.2054H14.1817C14.2253 13.2059 14.2689 13.2028 14.3121 13.1961C14.3746 13.185 14.4305 13.1495 14.4685 13.0972C14.5064 13.0448 14.5234 12.9795 14.5159 12.9146C14.5107 12.8523 14.4831 12.7943 14.4385 12.7519C14.3939 12.7096 14.3356 12.686 14.2749 12.6858C13.9333 12.6858 13.5916 12.6858 13.25 12.6858C13.1864 12.6856 13.1254 12.7114 13.0802 12.7574C13.0351 12.8035 13.0095 12.8661 13.009 12.9316C13.0041 13.145 12.9983 13.3568 12.9991 13.5727C12.9991 14.048 13.0049 14.5242 13.0082 14.9995C13.0079 15.0336 13.0142 15.0675 13.0266 15.0992C13.0391 15.1309 13.0575 15.1597 13.0807 15.184C13.1277 15.2332 13.1917 15.2612 13.2587 15.2618C13.3256 15.2623 13.3901 15.2354 13.4378 15.187C13.4856 15.1386 13.5127 15.0727 13.5132 15.0037C13.5132 14.7818 13.5132 14.559 13.5132 14.3362C13.5132 14.3065 13.5132 14.2759 13.5132 14.2385C13.6098 14.2385 13.6964 14.2385 13.7839 14.2385C13.8871 14.2385 13.991 14.2385 14.0942 14.224C14.1472 14.2153 14.1951 14.1866 14.2288 14.1436C14.2625 14.1006 14.2795 14.0462 14.2766 13.991C14.2734 13.9329 14.2549 13.8768 14.2231 13.8287C14.1912 13.7806 14.1472 13.7423 14.0959 13.718C14.0212 13.7078 13.9459 13.7025 13.8706 13.702C13.7781 13.702 13.6849 13.702 13.5925 13.702C13.5388 13.702 13.5165 13.6781 13.5157 13.6279C13.5157 13.4911 13.5157 13.3534 13.5157 13.2054ZM12.008 15.7792C11.9539 15.7824 11.9017 15.8015 11.8578 15.8344C11.8139 15.8672 11.7801 15.9124 11.7605 15.9645C11.7413 16.0226 11.7423 16.0858 11.7634 16.1432C11.7845 16.2006 11.8243 16.2487 11.876 16.2791L13.2252 17.2067C13.5 17.3964 13.5116 17.398 13.7839 17.2118C14.237 16.9032 14.6917 16.5912 15.1414 16.2808C15.1768 16.2593 15.2068 16.2295 15.2287 16.1937C15.2507 16.1579 15.264 16.1173 15.2677 16.0751C15.2739 16.0272 15.2662 15.9785 15.2454 15.9352C15.2247 15.8919 15.1919 15.8559 15.1513 15.8319C15.1069 15.8032 15.055 15.7891 15.0026 15.7917C14.9503 15.7943 14.8999 15.8134 14.8584 15.8463C14.4334 16.1388 14.0076 16.4288 13.5842 16.723C13.5635 16.7419 13.5368 16.7523 13.5091 16.7523C13.4814 16.7523 13.4547 16.7419 13.434 16.723C13.0154 16.4316 12.595 16.1425 12.1731 15.8557C12.1205 15.8256 12.0655 15.8 12.0089 15.7792H12.008ZM13.5124 11.1877L13.5496 11.2132C13.9897 11.5142 14.4279 11.8152 14.8641 12.1162C14.8913 12.1378 14.9225 12.1534 14.9557 12.1623C14.9889 12.1711 15.0236 12.1729 15.0575 12.1676C15.0914 12.1623 15.124 12.1499 15.1531 12.1313C15.1823 12.1126 15.2075 12.0882 15.2272 12.0592C15.247 12.0293 15.2605 11.9955 15.2671 11.9599C15.2736 11.9243 15.273 11.8878 15.2653 11.8525C15.2575 11.8172 15.2428 11.7838 15.2221 11.7546C15.2014 11.7254 15.175 11.7009 15.1447 11.6826C14.6496 11.3424 14.1544 11.0023 13.6593 10.6622C13.6151 10.6281 13.5614 10.6098 13.5062 10.6098C13.4511 10.6098 13.3974 10.6281 13.3531 10.6622L12.91 10.9658C12.5673 11.2016 12.2245 11.4374 11.8818 11.6732C11.8485 11.69 11.8191 11.714 11.7957 11.7436C11.7723 11.7732 11.7555 11.8076 11.7463 11.8446C11.7371 11.8816 11.7358 11.9202 11.7425 11.9577C11.7492 11.9953 11.7637 12.0308 11.7851 12.062C11.8065 12.0932 11.8341 12.1192 11.8662 12.1383C11.8983 12.1574 11.9341 12.1691 11.9709 12.1726C12.0078 12.176 12.045 12.1712 12.0799 12.1583C12.1148 12.1455 12.1466 12.1251 12.1731 12.0983L13.5124 11.1877ZM16.0269 13.2147C16.135 13.2088 16.2332 13.2148 16.3297 13.1969C16.3893 13.1852 16.4426 13.1513 16.4796 13.1018C16.5165 13.0523 16.5346 12.9905 16.5303 12.9282C16.5275 12.8669 16.503 12.8088 16.4612 12.765C16.4195 12.7212 16.3636 12.6949 16.3042 12.691C15.9515 12.6876 15.5989 12.6876 15.2462 12.691C15.1868 12.6938 15.1307 12.7196 15.089 12.7632C15.0474 12.8069 15.0234 12.8653 15.0218 12.9265C15.0178 12.9641 15.022 13.0021 15.0341 13.0378C15.0461 13.0735 15.0658 13.106 15.0915 13.133C15.1172 13.1599 15.1485 13.1806 15.183 13.1936C15.2174 13.2065 15.2542 13.2114 15.2908 13.2079C15.3659 13.2079 15.441 13.2079 15.521 13.2079V13.3405C15.521 13.887 15.521 14.4334 15.521 14.9799C15.5173 15.0206 15.5222 15.0618 15.5355 15.1005C15.5487 15.1391 15.57 15.1742 15.5978 15.2035C15.6336 15.2396 15.679 15.2639 15.7282 15.2734C15.7774 15.2828 15.8283 15.277 15.8743 15.2566C15.9203 15.2362 15.9594 15.202 15.9865 15.1587C16.0137 15.1153 16.0278 15.0647 16.0269 15.0131C16.0269 14.5261 16.0269 14.0389 16.0269 13.5515V13.2147ZM10.2379 13.7249C10.1723 13.7249 10.1093 13.7518 10.0629 13.7996C10.0164 13.8475 9.99035 13.9124 9.99035 13.98C9.99035 14.0491 10.017 14.1154 10.0644 14.1642C10.1119 14.2131 10.1762 14.2405 10.2433 14.2405C10.3104 14.2405 10.3747 14.2131 10.4221 14.1642C10.4696 14.1154 10.4962 14.0491 10.4962 13.98C10.497 13.9451 10.4909 13.9104 10.4782 13.8781C10.4655 13.8458 10.4465 13.8164 10.4224 13.7919C10.3982 13.7675 10.3695 13.7485 10.3379 13.7359C10.3063 13.7233 10.2726 13.7176 10.2387 13.719L10.2379 13.7249ZM16.5311 13.9758C16.5303 14.0259 16.5439 14.075 16.5702 14.1172C16.5964 14.1594 16.6341 14.1928 16.6786 14.213C16.7231 14.2333 16.7723 14.2395 16.8203 14.2311C16.8682 14.2227 16.9127 14.1999 16.9481 14.1656C16.9836 14.1313 17.0084 14.087 17.0196 14.0382C17.0308 13.9895 17.0277 13.9384 17.0109 13.8914C16.994 13.8444 16.9641 13.8035 16.9249 13.7739C16.8856 13.7443 16.8388 13.7272 16.7902 13.7249C16.7577 13.7234 16.7252 13.7286 16.6946 13.74C16.664 13.7515 16.6359 13.7691 16.6119 13.7917C16.588 13.8144 16.5685 13.8417 16.5548 13.8721C16.5411 13.9025 16.5333 13.9354 16.5319 13.9689L16.5311 13.9758Z" fill="white"/>
</svg>
