<svg xmlns="http://www.w3.org/2000/svg" width="52" height="53" fill="none" viewBox="0 0 52 53">
  <path fill="#fff" d="M26 .317a26 26 0 1 0 26 26 26.03 26.03 0 0 0-26-26Zm22 26a21.899 21.899 0 0 1-.833 6H37.54a39.35 39.35 0 0 0 0-12h9.627c.555 1.952.835 3.971.833 6Zm-28.5 10h13a28.775 28.775 0 0 1-6.5 11.25 28.826 28.826 0 0 1-6.5-11.25Zm-.975-4a35.202 35.202 0 0 1 0-12h14.97c.687 3.97.687 8.03 0 12h-14.97ZM4 26.317a21.9 21.9 0 0 1 .833-6h9.627a39.35 39.35 0 0 0 0 12H4.833a21.9 21.9 0 0 1-.833-6Zm28.5-10h-13A28.776 28.776 0 0 1 26 5.067a28.825 28.825 0 0 1 6.5 11.25Zm13.083 0h-8.905a33.825 33.825 0 0 0-5.575-11.4 22.073 22.073 0 0 1 14.49 11.4h-.01Zm-24.685-11.4a33.825 33.825 0 0 0-5.575 11.4H6.408a22.073 22.073 0 0 1 14.49-11.4Zm-14.49 31.4h8.915a33.826 33.826 0 0 0 5.575 11.4 22.073 22.073 0 0 1-14.49-11.4Zm24.694 11.4a33.826 33.826 0 0 0 5.576-11.4h8.915a22.073 22.073 0 0 1-14.49 11.4Z"/>
</svg>
