<svg width="36" height="24" viewBox="0 0 36 24" fill="none" xmlns="http://www.w3.org/2000/svg">
  <path fill-rule="evenodd" clip-rule="evenodd" d="M5.5 4H30.5C31.8807 4 33 5.11929 33 6.5V17.5C33 18.8807 31.8807 20 30.5 20H5.5C4.11929 20 3 18.8807 3 17.5V6.5C3 5.11929 4.11929 4 5.5 4Z" fill="#006FCF"/>
  <path fill-rule="evenodd" clip-rule="evenodd" d="M9.99805 13.0034L8.59961 10.0037H7.00001V14.5108L9.00001 10.0037H10.9999L13 14.5108V10.0037H14.5L15.9978 13.0034L17.4978 10.0037H19V14.0037H17.5V11.5037L16 14.5037H15L13.5 11.5037V14.0037H10.9978L10.4978 13.0034H9.99805Z" fill="white"/>
  <path fill-rule="evenodd" clip-rule="evenodd" d="M20 10.0037H25L26 11.0037V13.0037L25 14.0037H20V10.0037ZM21.5 11.5037V12.5037H23.5V11.5037H21.5Z" fill="white"/>
  <path fill-rule="evenodd" clip-rule="evenodd" d="M25 9.5H26.5L28 11V12.5L26.5 14H25V9.5Z" fill="white"/>
</svg> 