<svg width="36" height="24" viewBox="0 0 36 24" fill="none" xmlns="http://www.w3.org/2000/svg">
  <path d="M3 10.5V16.5H8.8V15H4.5V10.5H3Z" fill="#4D148C"/>
  <path d="M8.5 10.5H10V16.5H8.5V10.5Z" fill="#4D148C"/>
  <path d="M18 10.5H20L17.2 13.3L20 16.5H18L15.6 13.8V16.5H14.1V10.5H15.6V13L18 10.5Z" fill="#4D148C"/>
  <path d="M26.3 10.5V12H22.9V12.8H26V14.2H22.9V15H26.4V16.5H21.4V10.5H26.3Z" fill="#4D148C"/>
  <path d="M10.5 10.5H12V12.8H14V10.5H15.5V16.5H14V14.3H12V16.5H10.5V10.5Z" fill="#FF5900"/>
  <path d="M20 10.5H21.5V16.5H20V10.5Z" fill="#FF5900"/>
  <path d="M31 10.5V12H27.6V12.8H30.7V14.2H27.6V15H31.1V16.5H26.1V10.5H31Z" fill="#FF5900"/>
  <path d="M33 10.5L31.1 13.4L33 16.5H31.3L30 14.2L28.8 16.5H27.1L29 13.4L27.1 10.5H28.8L30 12.6L31.3 10.5H33Z" fill="#FF5900"/>
</svg> 