<svg width="36" height="24" viewBox="0 0 36 24" fill="none" xmlns="http://www.w3.org/2000/svg">
  <path d="M21.3125 5.25H14.7656V18.75H21.3125V5.25Z" fill="#FF5F00"/>
  <path d="M15.2345 12C15.2345 9.3 16.5782 6.9375 18.6095 5.25C17.2032 4.125 15.4407 3.75 13.6782 3.75C8.90948 3.75 5.0657 7.5 5.0657 12C5.0657 16.5 8.90948 20.25 13.6782 20.25C15.4407 20.25 17.2032 19.875 18.6095 18.75C16.5782 17.0625 15.2345 14.7 15.2345 12Z" fill="#EB001B"/>
  <path d="M31.0125 12C31.0125 16.5 27.1687 20.25 22.4 20.25C20.6375 20.25 18.875 19.875 17.4688 18.75C19.5 17.0625 20.8438 14.7 20.8438 12C20.8438 9.3 19.5 6.9375 17.4688 5.25C18.875 4.125 20.6375 3.75 22.4 3.75C27.1687 3.75 31.0125 7.5 31.0125 12Z" fill="#F79E1B"/>
</svg> 