<svg width="36" height="24" viewBox="0 0 36 24" fill="none" xmlns="http://www.w3.org/2000/svg">
  <path d="M16.697 9.752C16.697 9.072 17.241 8.730 18.102 8.730C19.331 8.730 20.889 9.198 22.143 10.032V6.150C20.738 5.433 19.331 5.127 17.925 5.127C14.458 5.127 12.033 7.143 12.033 10.032C12.033 14.391 17.821 13.743 17.821 15.792C17.821 16.578 17.139 16.920 16.219 16.920C14.865 16.920 13.117 16.272 11.725 15.315V19.230C13.339 20.016 14.985 20.379 16.630 20.379C20.175 20.379 22.669 18.444 22.669 15.491C22.655 10.793 16.697 11.544 16.697 9.752Z" fill="#635BFF"/>
</svg> 