<svg width="36" height="24" viewBox="0 0 36 24" fill="none" xmlns="http://www.w3.org/2000/svg">
  <path d="M18 5C14.1 5 11 8.1 11 12C11 15.9 14.1 19 18 19C21.9 19 25 15.9 25 12C25 8.1 21.9 5 18 5ZM18 17.4C15 17.4 12.6 15 12.6 12C12.6 9 15 6.6 18 6.6C21 6.6 23.4 9 23.4 12C23.4 15 21 17.4 18 17.4Z" fill="#351C15"/>
  <path d="M17.2 9.4V14.6H18.8V9.4H17.2Z" fill="#351C15"/>
  <path d="M9.7 12.8C9.4 12.8 9.1 12.8 8.8 12.9V9.4H7.2V15.7C8.2 15.3 9.2 15.1 10.3 15.1C11.3 15.1 12 15.5 12 16.4V17.7H13.6V16.1C13.6 14 12 12.8 9.7 12.8Z" fill="#351C15"/>
  <path d="M28.8 12.8C28.5 12.8 28.2 12.8 27.9 12.9V9.4H26.3V15.7C27.3 15.3 28.3 15.1 29.4 15.1C30.4 15.1 31.1 15.5 31.1 16.4V17.7H32.7V16.1C32.7 14 31.1 12.8 28.8 12.8Z" fill="#351C15"/>
</svg> 