<svg width="36" height="24" viewBox="0 0 36 24" fill="none" xmlns="http://www.w3.org/2000/svg">
  <path d="M13.296 15.087H10.765L12.433 8.933H14.965L13.296 15.087Z" fill="#1434CB"/>
  <path d="M21.024 9.113C20.507 8.933 19.727 8.733 18.75 8.733C16.567 8.733 15.005 9.909 14.996 11.606C14.976 12.869 16.078 13.574 16.899 14.001C17.738 14.434 18.008 14.716 18.005 15.101C17.998 15.683 17.312 15.945 16.669 15.945C15.806 15.945 15.35 15.831 14.647 15.511L14.336 15.369L14.006 17.421C14.624 17.673 15.759 17.896 16.936 17.904C19.269 17.904 20.807 16.746 20.825 14.932C20.834 13.922 20.217 13.148 18.967 12.513C18.202 12.106 17.748 11.831 17.752 11.409C17.752 11.035 18.176 10.641 19.091 10.641C19.87 10.629 20.437 10.775 20.875 10.927L21.095 11.035L21.417 9.067L21.024 9.113Z" fill="#1434CB"/>
  <path d="M24.938 8.933H23.013C22.427 8.933 21.982 9.115 21.732 9.688L18.574 15.087H20.906C20.906 15.087 21.316 14.014 21.402 13.804C21.631 13.804 23.927 13.808 24.22 13.808C24.285 14.079 24.507 15.087 24.507 15.087H26.551L24.938 8.933ZM22.006 12.149C22.184 11.696 22.82 10.071 22.82 10.071C22.811 10.09 22.994 9.615 23.096 9.328L23.232 9.998C23.232 9.998 23.625 11.75 23.712 12.149H22.006Z" fill="#1434CB"/>
  <path d="M9.512 8.933L7.29 13.248L7.093 12.214C6.745 10.944 5.612 9.576 4.353 8.962L6.382 15.083H8.727L12.285 8.933H9.512Z" fill="#1434CB"/>
  <path d="M6.109 9.375H2.42L2.39 9.547C5.26 10.178 7.16 11.883 7.93 13.933L7.13 9.688C7.006 9.115 6.612 9.39 6.109 9.375Z" fill="#F79410"/>
</svg> 